<svg width="48" height="48" viewBox="0 0 48 48" fill="none" xmlns="http://www.w3.org/2000/svg">
<g clip-path="url(#clip0_760_1585)">
<path d="M28 10.0001C28.4673 9.99921 28.9202 10.162 29.28 10.4601C29.4825 10.628 29.6499 10.8342 29.7726 11.0669C29.8953 11.2996 29.9709 11.5542 29.9951 11.8162C30.0192 12.0781 29.9915 12.3423 29.9134 12.5935C29.8353 12.8447 29.7084 13.078 29.54 13.2801L20.58 24.0001L29.22 34.7401C29.3862 34.9447 29.5102 35.1801 29.5851 35.4328C29.6599 35.6854 29.6841 35.9504 29.6563 36.2125C29.6284 36.4745 29.549 36.7285 29.4226 36.9598C29.2963 37.1911 29.1255 37.3951 28.92 37.5601C28.7131 37.7422 28.4708 37.8795 28.2082 37.9635C27.9457 38.0475 27.6687 38.0763 27.3945 38.0481C27.1203 38.02 26.8549 37.9354 26.6149 37.7998C26.375 37.6642 26.1656 37.4805 26 37.2601L16.34 25.2601C16.0459 24.9023 15.885 24.4534 15.885 23.9901C15.885 23.5269 16.0459 23.078 16.34 22.7201L26.34 10.7201C26.5407 10.4781 26.7955 10.2868 27.0839 10.1617C27.3724 10.0366 27.6862 9.98122 28 10.0001Z" fill="#E0E0E0"/>
</g>
<defs>
<clipPath id="clip0_760_1585">
<rect width="48" height="48" fill="white" transform="translate(48 48) rotate(180)"/>
</clipPath>
</defs>
</svg>
