<svg width="24" height="24" viewBox="0 0 24 24" fill="none" xmlns="http://www.w3.org/2000/svg">
<g clip-path="url(#clip0_518_1639)">
<path d="M21.874 11.5043C21.234 10.3943 17.714 4.82427 11.734 5.00427C6.20397 5.14427 3.00397 10.0043 2.13397 11.5043C2.04621 11.6563 2 11.8287 2 12.0043C2 12.1798 2.04621 12.3522 2.13397 12.5043C2.76397 13.5943 6.13398 19.0043 12.024 19.0043H12.274C17.804 18.8643 21.014 14.0043 21.874 12.5043C21.9617 12.3522 22.0079 12.1798 22.0079 12.0043C22.0079 11.8287 21.9617 11.6563 21.874 11.5043ZM12.224 17.0043C7.91398 17.1043 5.10397 13.4143 4.22397 12.0043C5.22397 10.3943 7.83397 7.10427 11.834 7.00427C16.124 6.89427 18.944 10.5943 19.834 12.0043C18.804 13.6143 16.224 16.9043 12.224 17.0043Z" fill="#E0E0E0"/>
<path d="M12 8.5C11.3078 8.5 10.6311 8.70527 10.0555 9.08986C9.47993 9.47444 9.03133 10.0211 8.76642 10.6606C8.50152 11.3001 8.4322 12.0039 8.56725 12.6828C8.7023 13.3618 9.03564 13.9854 9.52513 14.4749C10.0146 14.9644 10.6383 15.2977 11.3172 15.4327C11.9961 15.5678 12.6999 15.4985 13.3394 15.2336C13.9789 14.9687 14.5256 14.5201 14.9101 13.9445C15.2947 13.3689 15.5 12.6922 15.5 12C15.5 11.0717 15.1313 10.1815 14.4749 9.52513C13.8185 8.86875 12.9283 8.5 12 8.5ZM12 13.5C11.7033 13.5 11.4133 13.412 11.1666 13.2472C10.92 13.0824 10.7277 12.8481 10.6142 12.574C10.5007 12.2999 10.4709 11.9983 10.5288 11.7074C10.5867 11.4164 10.7296 11.1491 10.9393 10.9393C11.1491 10.7296 11.4164 10.5867 11.7074 10.5288C11.9983 10.4709 12.2999 10.5006 12.574 10.6142C12.8481 10.7277 13.0824 10.92 13.2472 11.1666C13.412 11.4133 13.5 11.7033 13.5 12C13.5 12.3978 13.342 12.7794 13.0607 13.0607C12.7794 13.342 12.3978 13.5 12 13.5Z" fill="#E0E0E0"/>
</g>
<defs>
<clipPath id="clip0_518_1639">
<rect width="24" height="24" fill="white"/>
</clipPath>
</defs>
</svg>
