<svg width="64" height="64" viewBox="0 0 64 64" fill="none" xmlns="http://www.w3.org/2000/svg">
<rect width="64" height="64" rx="24" fill="#292929"/>
<g clip-path="url(#clip0_703_1583)">
<path d="M32 30.3333C33.3186 30.3333 34.6075 29.9423 35.7038 29.2098C36.8002 28.4773 37.6547 27.4361 38.1592 26.2179C38.6638 24.9997 38.7958 23.6593 38.5386 22.3661C38.2814 21.0729 37.6464 19.885 36.7141 18.9526C35.7817 18.0203 34.5938 17.3853 33.3006 17.1281C32.0074 16.8709 30.667 17.0029 29.4488 17.5075C28.2306 18.0121 27.1895 18.8665 26.4569 19.9629C25.7244 21.0592 25.3334 22.3481 25.3334 23.6667C25.3334 25.4348 26.0358 27.1305 27.286 28.3807C28.5362 29.631 30.2319 30.3333 32 30.3333Z" fill="#E0E0E0"/>
<path d="M42 47.0001C42.4421 47.0001 42.866 46.8245 43.1786 46.5119C43.4911 46.1994 43.6667 45.7754 43.6667 45.3334C43.6667 42.2392 42.4375 39.2718 40.2496 37.0838C38.0617 34.8959 35.0942 33.6667 32 33.6667C28.9058 33.6667 25.9384 34.8959 23.7505 37.0838C21.5625 39.2718 20.3334 42.2392 20.3334 45.3334C20.3334 45.7754 20.509 46.1994 20.8215 46.5119C21.1341 46.8245 21.558 47.0001 22 47.0001H42Z" fill="#E0E0E0"/>
</g>
<defs>
<clipPath id="clip0_703_1583">
<rect width="40" height="40" fill="white" transform="translate(12 12)"/>
</clipPath>
</defs>
</svg>
