<svg width="32" height="32" viewBox="0 0 32 32" fill="none" xmlns="http://www.w3.org/2000/svg">
<g clip-path="url(#clip0_691_1585)">
<path d="M11.48 29.3332C10.8294 29.3293 10.1977 29.1141 9.68005 28.7198L6.92005 26.6665C6.28313 26.1699 5.86052 25.4483 5.73902 24.6498C5.61752 23.8514 5.80634 23.0367 6.26671 22.3732C6.5103 22.0135 6.6651 21.6012 6.71841 21.1701C6.77172 20.739 6.72202 20.3013 6.57338 19.8932L6.49338 19.6798C6.38989 19.3104 6.20073 18.9705 5.94126 18.6879C5.68179 18.4053 5.35932 18.1878 5.00005 18.0532H4.78671C4.00788 17.7913 3.36379 17.2327 2.99433 16.4988C2.62486 15.7648 2.55984 14.9148 2.81338 14.1332L3.90671 10.6665C4.00736 10.2649 4.19266 9.88934 4.4502 9.56511C4.70774 9.24088 5.03159 8.97542 5.40005 8.7865C5.74318 8.60971 6.11862 8.50437 6.50364 8.47687C6.88867 8.44937 7.27527 8.50027 7.64005 8.6265C8.03723 8.76017 8.46104 8.79482 8.87465 8.72743C9.28827 8.66005 9.67917 8.49267 10.0134 8.23984L10.1867 8.1065C10.4892 7.86511 10.7337 7.55891 10.9022 7.21046C11.0707 6.86201 11.1588 6.4802 11.16 6.09317V5.77317C11.1565 4.95735 11.4753 4.17314 12.0472 3.59128C12.619 3.00943 13.3976 2.67705 14.2134 2.6665H17.6134C18.0103 2.66757 18.4031 2.74704 18.7692 2.90035C19.1353 3.05365 19.4675 3.27777 19.7467 3.55984C20.3338 4.15689 20.6599 4.96254 20.6534 5.79984V6.17317C20.6466 6.54084 20.7264 6.90495 20.8862 7.23614C21.046 7.56734 21.2814 7.85634 21.5734 8.07984L21.72 8.1865C22.0193 8.41091 22.3684 8.55963 22.7375 8.61999C23.1066 8.68035 23.4849 8.65057 23.84 8.53317L24.2934 8.3865C24.6775 8.25919 25.0833 8.21053 25.4866 8.24343C25.8899 8.27634 26.2824 8.39013 26.6408 8.57802C26.9991 8.76592 27.316 9.02407 27.5724 9.33707C27.8289 9.65007 28.0196 10.0115 28.1334 10.3998L29.1867 13.7598C29.4304 14.5364 29.3638 15.3771 29.0008 16.1056C28.6379 16.834 28.0068 17.3935 27.24 17.6665L26.9734 17.7598C26.5812 17.8883 26.2265 18.1111 25.9405 18.4086C25.6546 18.7062 25.4461 19.0695 25.3334 19.4665C25.2272 19.8356 25.2021 20.2232 25.2596 20.6029C25.3172 20.9826 25.456 21.3454 25.6667 21.6665L26.0134 22.1732C26.4731 22.8404 26.6602 23.6583 26.5362 24.459C26.4123 25.2598 25.9867 25.9828 25.3467 26.4798L22.6667 28.5465C22.3429 28.7941 21.9719 28.9728 21.5765 29.0717C21.181 29.1705 20.7695 29.1873 20.3673 29.1211C19.9651 29.0549 19.5807 28.9071 19.2378 28.6867C18.8949 28.4664 18.6007 28.1782 18.3734 27.8398L18.2134 27.6132C17.995 27.285 17.697 27.0175 17.3473 26.8356C16.9976 26.6538 16.6075 26.5635 16.2134 26.5732C15.8373 26.5829 15.4689 26.6809 15.1377 26.8592C14.8065 27.0376 14.5218 27.2913 14.3067 27.5998L14 28.0398C13.7726 28.3805 13.4779 28.6711 13.1339 28.8935C12.7899 29.1159 12.404 29.2656 12 29.3332C11.8271 29.3501 11.653 29.3501 11.48 29.3332ZM5.86671 15.4932C6.61963 15.7616 7.29901 16.2031 7.85018 16.7821C8.40134 17.361 8.8089 18.0613 9.04005 18.8265V18.9865C9.32796 19.782 9.4225 20.6346 9.31585 21.4739C9.2092 22.3131 8.90444 23.115 8.42671 23.8132C8.34239 23.9063 8.29569 24.0275 8.29569 24.1532C8.29569 24.2788 8.34239 24.4 8.42671 24.4932L11.2934 26.6665C11.3308 26.6959 11.374 26.7169 11.4202 26.7282C11.4664 26.7395 11.5145 26.7407 11.5612 26.7319C11.608 26.7231 11.6523 26.7043 11.6912 26.6769C11.73 26.6496 11.7626 26.6142 11.7867 26.5732L12.0934 26.1332C12.5559 25.4649 13.1736 24.9187 13.8935 24.5414C14.6133 24.1642 15.414 23.9671 16.2267 23.9671C17.0395 23.9671 17.8401 24.1642 18.56 24.5414C19.2799 24.9187 19.8975 25.4649 20.36 26.1332L20.52 26.3732C20.5774 26.4545 20.6629 26.5115 20.76 26.5332C20.8046 26.5397 20.85 26.5372 20.8935 26.5258C20.9371 26.5143 20.9778 26.4942 21.0134 26.4665L23.76 24.3865C23.8562 24.3102 23.9195 24.1999 23.9368 24.0784C23.9542 23.9569 23.9243 23.8334 23.8534 23.7332L23.5067 23.2265C23.055 22.5678 22.757 21.8161 22.6347 21.0269C22.5124 20.2376 22.5689 19.431 22.8 18.6665C23.0344 17.863 23.4582 17.1275 24.036 16.5219C24.6137 15.9163 25.3285 15.4584 26.12 15.1865L26.3867 15.0932C26.4979 15.0487 26.5869 14.962 26.6343 14.8521C26.6818 14.7422 26.6838 14.6179 26.64 14.5065L25.6 11.1865C25.5751 11.1284 25.5386 11.076 25.4927 11.0325C25.4469 10.9889 25.3927 10.9551 25.3334 10.9332C25.2941 10.9133 25.2507 10.9029 25.2067 10.9029C25.1627 10.9029 25.1193 10.9133 25.08 10.9332L24.6267 11.0798C23.8598 11.3329 23.043 11.396 22.2464 11.2636C21.4497 11.1312 20.6972 10.8074 20.0534 10.3198L20 10.1998C19.3823 9.732 18.8814 9.12732 18.5367 8.43329C18.192 7.73925 18.0129 6.97476 18.0134 6.19984V5.7865C18.0158 5.65799 17.968 5.53361 17.88 5.43984C17.8033 5.37051 17.7034 5.33245 17.6 5.33317H14.2134C14.1591 5.33656 14.1059 5.35065 14.0571 5.37462C14.0082 5.39859 13.9646 5.43197 13.9287 5.47285C13.8927 5.51374 13.8652 5.56131 13.8477 5.61285C13.8302 5.66438 13.8231 5.71887 13.8267 5.77317V6.1065C13.8268 6.90255 13.6441 7.688 13.2927 8.4023C12.9414 9.11661 12.4307 9.74071 11.8 10.2265L11.6267 10.3598C10.9464 10.8778 10.149 11.2205 9.30498 11.3577C8.46093 11.4949 7.59611 11.4224 6.78671 11.1465C6.72615 11.1262 6.66061 11.1262 6.60005 11.1465C6.5248 11.1922 6.46813 11.2631 6.44005 11.3465L5.33338 14.8265C5.2948 14.945 5.30384 15.0739 5.35859 15.1859C5.41333 15.2979 5.50949 15.3842 5.62671 15.4265L5.86671 15.4932Z" fill="#E0E0E0"/>
<path d="M15.9999 20.6668C15.0769 20.6668 14.1747 20.3931 13.4073 19.8804C12.6398 19.3676 12.0417 18.6387 11.6885 17.786C11.3353 16.9333 11.2429 15.995 11.4229 15.0897C11.603 14.1845 12.0474 13.353 12.7001 12.7003C13.3527 12.0477 14.1843 11.6032 15.0895 11.4232C15.9947 11.2431 16.9331 11.3355 17.7858 11.6887C18.6385 12.0419 19.3673 12.6401 19.8801 13.4075C20.3929 14.1749 20.6666 15.0772 20.6666 16.0002C20.6666 17.2378 20.1749 18.4248 19.2998 19.3C18.4246 20.1752 17.2376 20.6668 15.9999 20.6668ZM15.9999 14.0002C15.6044 14.0002 15.2177 14.1175 14.8888 14.3372C14.5599 14.557 14.3035 14.8693 14.1522 15.2348C14.0008 15.6003 13.9612 16.0024 14.0384 16.3903C14.1155 16.7783 14.306 17.1347 14.5857 17.4144C14.8654 17.6941 15.2218 17.8846 15.6097 17.9617C15.9977 18.0389 16.3998 17.9993 16.7653 17.8479C17.1307 17.6965 17.4431 17.4402 17.6629 17.1113C17.8826 16.7824 17.9999 16.3957 17.9999 16.0002C17.9999 15.4697 17.7892 14.961 17.4141 14.586C17.0391 14.2109 16.5304 14.0002 15.9999 14.0002Z" fill="#E0E0E0"/>
</g>
<defs>
<clipPath id="clip0_691_1585">
<rect width="32" height="32" fill="white"/>
</clipPath>
</defs>
</svg>
